{"asset":{"version":"2.0","generator":"THREE.GLTFExporter"},"scenes":[{"nodes":[0],"name":"AuxScene"}],"scene":0,"nodes":[{"mesh":0}],"bufferViews":[{"buffer":0,"byteOffset":0,"byteLength":34200,"target":34962,"byteStride":12},{"buffer":0,"byteOffset":34200,"byteLength":34200,"target":34962,"byteStride":12}],"buffers":[{"byteLength":68400,"uri":"data:application/octet-stream;base64,"}],"accessors":[{"bufferView":0,"componentType":5126,"count":2850,"max":[100.4000244140625,60.99597930908203,249.50003051757812],"min":[-100.59999084472656,0.19596900045871735,-249.39999389648438],"type":"VEC3"},{"bufferView":1,"componentType":5126,"count":2850,"max":[0.2825329005718231,1,0.4569483995437622],"min":[-0.5311865210533142,0.8466041684150696,-0.41078004240989685],"type":"VEC3"}],"materials":[{"pbrMetallicRoughness":{"baseColorFactor":[0.5019607843137255,0.5019607843137255,0.5019607843137255,1],"metallicFactor":0,"roughnessFactor":1}}],"meshes":[{"primitives":[{"mode":4,"attributes":{"POSITION":0,"NORMAL":1},"material":0}]}]}